<svg width="420" height="420" viewBox="0 0 420 420" fill="none" xmlns="http://www.w3.org/2000/svg">
  <defs>
    <radialGradient id="bgFrijol" cx="50%" cy="45%" r="65%">
      <stop offset="0%" stop-color="#23140A"/>
      <stop offset="100%" stop-color="#0C0501"/>
    </radialGradient>
    <linearGradient id="vine" x1="120" y1="360" x2="320" y2="120" gradientUnits="userSpaceOnUse">
      <stop offset="0%" stop-color="#2FA06B"/>
      <stop offset="100%" stop-color="#7AE8B0"/>
    </linearGradient>
    <linearGradient id="pod" x1="0" y1="0" x2="1" y2="1">
      <stop offset="0%" stop-color="#E0C18A"/>
      <stop offset="100%" stop-color="#B3783D"/>
    </linearGradient>
    <filter id="podGlow" x="-40" y="-40" width="500" height="500" filterUnits="userSpaceOnUse">
      <feGaussianBlur stdDeviation="24" result="g"/>
      <feComposite in="g" in2="SourceGraphic" operator="in"/>
    </filter>
  </defs>
  <rect width="420" height="420" rx="36" fill="url(#bgFrijol)"/>
  <g stroke="url(#vine)" stroke-width="8" stroke-linecap="round" fill="none">
    <path d="M150 340c-30-70 0-180 80-220"/>
    <path d="M262 300c36-80 20-150-30-210" opacity="0.7"/>
    <path d="M150 340c40 6 80 0 122-22" opacity="0.4"/>
  </g>
  <g filter="url(#podGlow)">
    <path d="M180 250c20 40 60 78 100 62-14-40-54-78-100-62z" fill="url(#pod)"/>
    <path d="M150 220c12 38 40 82 74 78-8-32-34-70-74-78z" fill="url(#pod)" opacity="0.8"/>
  </g>
  <circle cx="188" cy="248" r="12" fill="rgba(255,255,255,0.2)"/>
  <circle cx="226" cy="280" r="10" fill="rgba(255,255,255,0.18)"/>
  <ellipse cx="210" cy="362" rx="68" ry="18" fill="rgba(191,140,80,0.22)"/>
</svg>
