<svg width="420" height="420" viewBox="0 0 420 420" fill="none" xmlns="http://www.w3.org/2000/svg">
  <defs>
    <radialGradient id="bgMaiz" cx="50%" cy="45%" r="60%">
      <stop offset="0%" stop-color="#2B1038"/>
      <stop offset="100%" stop-color="#100417"/>
    </radialGradient>
    <linearGradient id="husk" x1="120" y1="360" x2="310" y2="80" gradientUnits="userSpaceOnUse">
      <stop offset="0%" stop-color="#44D18F"/>
      <stop offset="100%" stop-color="#86F7C9"/>
    </linearGradient>
    <linearGradient id="corn" x1="180" y1="340" x2="260" y2="120" gradientUnits="userSpaceOnUse">
      <stop offset="0%" stop-color="#FFC751"/>
      <stop offset="50%" stop-color="#FFE89B"/>
      <stop offset="100%" stop-color="#FF9D00"/>
    </linearGradient>
    <filter id="cornGlow" x="-40" y="-40" width="500" height="500" filterUnits="userSpaceOnUse">
      <feGaussianBlur stdDeviation="26" result="g"/>
      <feComposite in="g" in2="SourceGraphic" operator="in"/>
    </filter>
  </defs>
  <rect width="420" height="420" rx="36" fill="url(#bgMaiz)"/>
  <g filter="url(#cornGlow)">
    <path d="M210 360c48-82 64-200 28-260-34 62-20 178-28 260z" fill="url(#corn)"/>
  </g>
  <g fill="url(#corn)">
    <circle cx="222" cy="180" r="16"/>
    <circle cx="206" cy="210" r="15"/>
    <circle cx="236" cy="210" r="15"/>
    <circle cx="220" cy="240" r="14"/>
    <circle cx="204" cy="270" r="13"/>
    <circle cx="236" cy="270" r="13"/>
    <circle cx="220" cy="300" r="12"/>
  </g>
  <g stroke="url(#husk)" stroke-width="10" stroke-linecap="round" stroke-linejoin="round">
    <path d="M210 360c-58-66-88-176-48-250"/>
    <path d="M210 360c48-56 86-164 54-246" opacity="0.8"/>
    <path d="M210 360c-32-38-56-98-24-156" opacity="0.5"/>
    <path d="M210 360c38-36 64-96 34-160" opacity="0.5"/>
  </g>
  <ellipse cx="210" cy="362" rx="62" ry="18" fill="rgba(255,199,81,0.32)"/>
</svg>
