<svg width="420" height="420" viewBox="0 0 420 420" fill="none" xmlns="http://www.w3.org/2000/svg">
  <defs>
    <radialGradient id="bgTomate" cx="50%" cy="40%" r="65%">
      <stop offset="0%" stop-color="#310818"/>
      <stop offset="100%" stop-color="#14020B"/>
    </radialGradient>
    <linearGradient id="fruit" x1="140" y1="320" x2="300" y2="160" gradientUnits="userSpaceOnUse">
      <stop offset="0%" stop-color="#FF4C6A"/>
      <stop offset="50%" stop-color="#FF7A96"/>
      <stop offset="100%" stop-color="#FFD0DA"/>
    </linearGradient>
    <linearGradient id="crown" x1="210" y1="140" x2="210" y2="70" gradientUnits="userSpaceOnUse">
      <stop offset="0%" stop-color="#4EF38D"/>
      <stop offset="100%" stop-color="#8DFFB0"/>
    </linearGradient>
    <filter id="tomatoGlow" x="-40" y="-40" width="500" height="500" filterUnits="userSpaceOnUse">
      <feGaussianBlur stdDeviation="30" result="g"/>
      <feComposite in="g" in2="SourceGraphic" operator="in"/>
    </filter>
  </defs>
  <rect width="420" height="420" rx="36" fill="url(#bgTomate)"/>
  <g filter="url(#tomatoGlow)">
    <circle cx="210" cy="240" r="110" fill="url(#fruit)"/>
  </g>
  <g fill="url(#crown)">
    <path d="M210 122c-10 24-40 60-70 70 30-4 52-2 70 8 18-10 40-12 70-8-30-10-60-46-70-70z"/>
    <circle cx="190" cy="130" r="10"/>
    <circle cx="230" cy="130" r="10"/>
  </g>
  <circle cx="180" cy="230" r="24" fill="rgba(255,255,255,0.25)"/>
  <circle cx="250" cy="250" r="18" fill="rgba(255,255,255,0.18)"/>
  <ellipse cx="210" cy="352" rx="78" ry="22" fill="rgba(255,76,106,0.24)"/>
</svg>
